<svg width="768" height="3303" fill="none" xmlns="http://www.w3.org/2000/svg" xmlns:xlink="http://www.w3.org/1999/xlink"><path fill="#0E0E0E" d="M0 0h768v3303H0z"/><path fill="url('#pattern0')" d="M0 0h768v3303H0z"/><circle cx="86" cy="889" r="62.5" transform="rotate(22.794 86 889)" stroke="#212121"/><circle cx="681" cy="1945" r="62.5" stroke="#212121"/><g filter="url('#filter0_b')"><circle cx="86" cy="889" r="40" fill="url('#paint0_linear')" fill-opacity=".03"/></g><g filter="url('#filter1_b')"><circle cx="681" cy="1945" r="40" fill="url('#paint1_linear')" fill-opacity=".03"/></g><mask id="path-7-inside-1" fill="#fff"><path d="M263 2179.5c0-31.19-6.143-62.07-18.079-90.89a237.466 237.466 0 0 0-128.534-128.53A237.414 237.414 0 0 0 25.5 1942v237.5H263Z"/></mask><path d="M263 2179.5c0-31.19-6.143-62.07-18.079-90.89a237.466 237.466 0 0 0-128.534-128.53A237.414 237.414 0 0 0 25.5 1942v237.5H263Z" stroke="#212121" stroke-width="2" mask="url('#path-7-inside-1')"/><mask id="path-8-inside-2" fill="#fff"><path d="M742.5 1141c-31.189 0-62.073 6.14-90.887 18.08a237.466 237.466 0 0 0-128.534 128.53A237.52 237.52 0 0 0 505 1378.5h237.5V1141Z"/></mask><path d="M742.5 1141c-31.189 0-62.073 6.14-90.887 18.08a237.466 237.466 0 0 0-128.534 128.53A237.52 237.52 0 0 0 505 1378.5h237.5V1141Z" stroke="#212121" stroke-width="2" mask="url('#path-8-inside-2')"/><mask id="path-9-inside-3" fill="#fff"><path d="M742.5 2868c-31.189 0-62.073 6.14-90.887 18.08a237.466 237.466 0 0 0-128.534 128.53A237.52 237.52 0 0 0 505 3105.5h237.5V2868Z"/></mask><path d="M742.5 2868c-31.189 0-62.073 6.14-90.887 18.08a237.466 237.466 0 0 0-128.534 128.53A237.52 237.52 0 0 0 505 3105.5h237.5V2868Z" stroke="#212121" stroke-width="2" mask="url('#path-9-inside-3')"/><circle cx="86" cy="3303" r="62.5" stroke="#212121"/><g filter="url('#filter2_b')"><path d="M126 3303c0-5.25-1.035-10.45-3.045-15.31a40.089 40.089 0 0 0-21.648-21.65A39.996 39.996 0 0 0 86 3263a39.998 39.998 0 0 0-15.307 3.04 40.092 40.092 0 0 0-12.977 8.68A39.958 39.958 0 0 0 46 3303h80Z" fill="url('#paint2_linear')" fill-opacity=".03"/></g><path stroke="#212121" d="M86.5 0v826M86.5 952v2288M681.5 0v1882M681.5 2008v1295"/><defs><linearGradient id="paint0_linear" x1="50.706" y1="837.235" x2="109.529" y2="946.059" gradientUnits="userSpaceOnUse"><stop stop-color="#C4C4C4"/><stop offset="1" stop-color="#C4C4C4" stop-opacity="0"/></linearGradient><linearGradient id="paint1_linear" x1="645.706" y1="1893.24" x2="704.529" y2="2002.06" gradientUnits="userSpaceOnUse"><stop stop-color="#C4C4C4"/><stop offset="1" stop-color="#C4C4C4" stop-opacity="0"/></linearGradient><linearGradient id="paint2_linear" x1="50.706" y1="3251.24" x2="109.529" y2="3360.06" gradientUnits="userSpaceOnUse"><stop stop-color="#C4C4C4"/><stop offset="1" stop-color="#C4C4C4" stop-opacity="0"/></linearGradient><filter id="filter0_b" x="26" y="829" width="120" height="120" filterUnits="userSpaceOnUse" color-interpolation-filters="sRGB"><feFlood flood-opacity="0" result="BackgroundImageFix"/><feGaussianBlur in="BackgroundImage" stdDeviation="10"/><feComposite in2="SourceAlpha" operator="in" result="effect1_backgroundBlur"/><feBlend in="SourceGraphic" in2="effect1_backgroundBlur" result="shape"/></filter><filter id="filter1_b" x="621" y="1885" width="120" height="120" filterUnits="userSpaceOnUse" color-interpolation-filters="sRGB"><feFlood flood-opacity="0" result="BackgroundImageFix"/><feGaussianBlur in="BackgroundImage" stdDeviation="10"/><feComposite in2="SourceAlpha" operator="in" result="effect1_backgroundBlur"/><feBlend in="SourceGraphic" in2="effect1_backgroundBlur" result="shape"/></filter><filter id="filter2_b" x="26" y="3243" width="120" height="80" filterUnits="userSpaceOnUse" color-interpolation-filters="sRGB"><feFlood flood-opacity="0" result="BackgroundImageFix"/><feGaussianBlur in="BackgroundImage" stdDeviation="10"/><feComposite in2="SourceAlpha" operator="in" result="effect1_backgroundBlur"/><feBlend in="SourceGraphic" in2="effect1_backgroundBlur" result="shape"/></filter><pattern id="pattern0" patternContentUnits="objectBoundingBox" width="2.5" height=".045"><use xlink:href="#image0" transform="scale(.0013 .0003)"/></pattern></defs></svg>