<svg width="1280" height="2376" fill="none" xmlns="http://www.w3.org/2000/svg"><path fill="#0E0E0E" d="M0 0h1280v2376H0z"/><mask id="mask0" mask-type="alpha" maskUnits="userSpaceOnUse" x="0" y="0" width="1280" height="2376"><path fill="#C4C4C4" d="M0 0h1280v2376H0z"/></mask><g mask="url('#mask0')"><path fill="#0E0E0E" d="M0 446h1280v1930H0z"/><circle cx="115" cy="850" r="107.5" stroke="#212121"/><circle cx="115" cy="2376" r="107.5" stroke="#212121"/><circle cx="1165" cy="1375" r="107.5" stroke="#212121"/><g filter="url('#filter0_b')"><circle cx="115" cy="850" r="68" fill="url('#paint0_linear')" fill-opacity=".03"/></g><g filter="url('#filter1_b')"><path d="M183 2376a67.993 67.993 0 0 0-19.917-48.08 67.781 67.781 0 0 0-22.061-14.74 67.95 67.95 0 0 0-52.044 0 67.794 67.794 0 0 0-22.061 14.74A67.987 67.987 0 0 0 47 2376h136Z" fill="url('#paint1_linear')" fill-opacity=".03"/></g><g filter="url('#filter2_b')"><circle cx="1165" cy="1375" r="68" fill="url('#paint2_linear')" fill-opacity=".03"/></g><mask id="path-9-inside-1" fill="#fff"><path d="M1250 490a333.958 333.958 0 0 0-236.17 97.826A333.999 333.999 0 0 0 916 824h334V490Z"/></mask><path d="M1250 490a333.958 333.958 0 0 0-236.17 97.826A333.999 333.999 0 0 0 916 824h334V490Z" stroke="#212121" stroke-width="2" mask="url('#path-9-inside-1')"/><mask id="path-10-inside-2" fill="#fff"><path d="M1250 1884c-43.86 0-87.29 8.64-127.82 25.42a333.965 333.965 0 0 0-108.35 72.41 333.906 333.906 0 0 0-72.406 108.35A334.052 334.052 0 0 0 916 2218h334v-334Z"/></mask><path d="M1250 1884c-43.86 0-87.29 8.64-127.82 25.42a333.965 333.965 0 0 0-108.35 72.41 333.906 333.906 0 0 0-72.406 108.35A334.052 334.052 0 0 0 916 2218h334v-334Z" stroke="#212121" stroke-width="2" mask="url('#path-10-inside-2')"/><mask id="path-11-inside-3" fill="#fff"><path d="M364 1588a333.958 333.958 0 0 0-97.826-236.17 334.02 334.02 0 0 0-108.358-72.41A334.087 334.087 0 0 0 30 1254v334h334Z"/></mask><path d="M364 1588a333.958 333.958 0 0 0-97.826-236.17 334.02 334.02 0 0 0-108.358-72.41A334.087 334.087 0 0 0 30 1254v334h334Z" stroke="#212121" stroke-width="2" mask="url('#path-11-inside-3')"/><path stroke="#212121" d="M115.5 0v1104M115.5 958v1310M1165.5 0v1267M1165.5 1483v893"/></g><defs><linearGradient id="paint0_linear" x1="55" y1="762" x2="155" y2="947" gradientUnits="userSpaceOnUse"><stop stop-color="#C4C4C4"/><stop offset="1" stop-color="#C4C4C4" stop-opacity="0"/></linearGradient><linearGradient id="paint1_linear" x1="55" y1="2288" x2="155" y2="2473" gradientUnits="userSpaceOnUse"><stop stop-color="#C4C4C4"/><stop offset="1" stop-color="#C4C4C4" stop-opacity="0"/></linearGradient><linearGradient id="paint2_linear" x1="1105" y1="1287" x2="1205" y2="1472" gradientUnits="userSpaceOnUse"><stop stop-color="#C4C4C4"/><stop offset="1" stop-color="#C4C4C4" stop-opacity="0"/></linearGradient><filter id="filter0_b" x="27" y="762" width="176" height="176" filterUnits="userSpaceOnUse" color-interpolation-filters="sRGB"><feFlood flood-opacity="0" result="BackgroundImageFix"/><feGaussianBlur in="BackgroundImage" stdDeviation="10"/><feComposite in2="SourceAlpha" operator="in" result="effect1_backgroundBlur"/><feBlend in="SourceGraphic" in2="effect1_backgroundBlur" result="shape"/></filter><filter id="filter1_b" x="27" y="2288" width="176" height="108" filterUnits="userSpaceOnUse" color-interpolation-filters="sRGB"><feFlood flood-opacity="0" result="BackgroundImageFix"/><feGaussianBlur in="BackgroundImage" stdDeviation="10"/><feComposite in2="SourceAlpha" operator="in" result="effect1_backgroundBlur"/><feBlend in="SourceGraphic" in2="effect1_backgroundBlur" result="shape"/></filter><filter id="filter2_b" x="1077" y="1287" width="176" height="176" filterUnits="userSpaceOnUse" color-interpolation-filters="sRGB"><feFlood flood-opacity="0" result="BackgroundImageFix"/><feGaussianBlur in="BackgroundImage" stdDeviation="10"/><feComposite in2="SourceAlpha" operator="in" result="effect1_backgroundBlur"/><feBlend in="SourceGraphic" in2="effect1_backgroundBlur" result="shape"/></filter></defs></svg>