<svg aria-hidden="true" style="width:0;height:0;position:absolute;overflow:hidden" xmlns="http://www.w3.org/2000/svg"><defs><symbol id="icon-arrow-down" viewBox="0 0 52 32"><path fill="#939393" style="fill:var(--color1,#939393)" d="M26 32 .019 2h51.962L26 32z"/></symbol><symbol id="icon-barcode" viewBox="0 0 44 32"><path d="M4.91 1.27H0v29.46h4.91V1.27zM17.26 1.27h-4.91v29.46h4.91V1.27zM24.699 1.27h-4.91v29.46h4.91V1.27zM44.19 1.27h-7.291v29.46h7.291V1.27zM9.82 1.27H7.439v29.46H9.82V1.27zM29.46 1.27h-2.381v29.46h2.381V1.27zM34.37 1.27h-2.381v29.46h2.381V1.27z"/></symbol><symbol id="icon-close-cross" viewBox="0 0 32 32"><path fill="#4c00fe" style="fill:var(--color2,#4c00fe)" d="M1.646 32a1.646 1.646 0 0 1-1.163-2.811L29.19.482a1.646 1.646 0 1 1 2.328 2.329L2.811 31.517A1.65 1.65 0 0 1 1.646 32z"/><path fill="#4c00fe" style="fill:var(--color2,#4c00fe)" d="M30.355 32a1.63 1.63 0 0 1-1.163-.483L.483 2.811A1.647 1.647 0 0 1 2.812.482l28.707 28.707A1.646 1.646 0 0 1 30.356 32z"/></symbol><symbol id="icon-drop" viewBox="0 0 22 32"><path fill="#fff" style="fill:var(--color3,#fff)" d="M11.2 0C5.024 0 0 4.99 0 11.123 0 18.832 11.211 32 11.211 32S22.4 18.453 22.4 11.123C22.4 4.99 17.376 0 11.2 0zm3.379 14.38c-.932.925-2.155 1.388-3.379 1.388s-2.448-.463-3.379-1.388a4.729 4.729 0 0 1 0-6.712c.902-.896 2.103-1.39 3.379-1.39s2.477.494 3.379 1.39a4.729 4.729 0 0 1 0 6.712z"/></symbol><symbol id="icon-magnifier" viewBox="0 0 32 32"><path fill="#939393" style="fill:var(--color1,#939393)" d="M4.024 4.024C6.619 1.429 10.069 0 13.739 0s7.12 1.429 9.715 4.024a13.649 13.649 0 0 1 4.024 9.715 13.64 13.64 0 0 1-3.383 9.029l7.63 7.63a.94.94 0 0 1-1.327 1.327l-7.63-7.63a13.635 13.635 0 0 1-9.029 3.383c-3.67 0-7.12-1.429-9.715-4.024S0 17.409 0 13.739s1.429-7.12 4.024-9.715zm1.327 18.103c4.625 4.625 12.15 4.625 16.775 0s4.625-12.15 0-16.775c-2.313-2.313-5.35-3.469-8.388-3.469S7.663 3.04 5.35 5.352c-4.625 4.625-4.625 12.15 0 16.775z"/></symbol><symbol id="icon-pink-border" viewBox="0 0 34 32"><path fill="#939393" style="fill:var(--color1,#939393)" d="M4.024 4.024C6.619 1.429 10.069 0 13.739 0s7.12 1.429 9.715 4.024a13.649 13.649 0 0 1 4.024 9.715 13.64 13.64 0 0 1-3.383 9.029l7.63 7.63a.94.94 0 0 1-1.327 1.327l-7.63-7.63a13.635 13.635 0 0 1-9.029 3.383c-3.67 0-7.12-1.429-9.715-4.024S0 17.409 0 13.739s1.429-7.12 4.024-9.715zm1.327 18.103c4.625 4.625 12.15 4.625 16.775 0s4.625-12.15 0-16.775c-2.313-2.313-5.35-3.469-8.388-3.469S7.663 3.04 5.35 5.352c-4.625 4.625-4.625 12.15 0 16.775z"/></symbol><symbol id="icon-small-pink-border" viewBox="0 0 115 110"><path fill="none" stroke="#dc56c5" style="stroke:var(--color4,#dc56c5)" stroke-width="1.067" d="M.533 10.667C.533 5.071 5.07.534 10.666.534h20.8v20.8c0 5.596-4.537 10.133-10.133 10.133H.533v-20.8z"/></symbol><symbol id="logo" viewBox="0 0 60 31"><path d="M18.595 23.27c-.558-1.552-1.707-2.328-3.446-2.329H14.6v9.572h.549c1.344 0 2.336-.53 2.977-1.59.54-.904.809-2.055.809-3.453-.002-.83-.115-1.564-.34-2.2ZM9.177 23.384c.558 1.552 1.707 2.328 3.445 2.328h.55V16.14h-.55c-1.344 0-2.336.53-2.976 1.59-.538.904-.807 2.055-.808 3.453 0 .83.113 1.564.339 2.201ZM.043.854h7.303v2.535H2.664v1.267h3.89v2.406h-3.89v1.282h4.682v2.535H.043V.854ZM11.018.841h9.45l-4.725 10.241L11.018.842Zm4.725 8.974 3.903-8.441h-7.792l3.889 8.44ZM24.241.853h7.303v2.535h-4.681v1.268h3.889V7.06h-3.89v1.282h4.682v2.535H24.24V.853ZM36.038 10.864V.84h.562l7 6.813V.841h.533v10.025l-8.095-.002ZM51.782 10.878v-7.49h-3.789V.853h8.095v2.535H52.3v7.49h-.518ZM4.35 18.138c.633 0 1.137.096 1.512.288a2.515 2.515 0 0 1 1.411 2.305c.003.461-.127.913-.374 1.303a2.66 2.66 0 0 1-1.023.944c.52.183.975.513 1.31.95.35.432.538.972.534 1.527.003.485-.129.962-.382 1.376a2.778 2.778 0 0 1-1.015.986c-.222.12-.46.207-.706.26-.26.057-.605.086-1.037.086H.143V18.138H4.35ZM21.238 27.436c-.754-.658-1.126-1.645-1.116-2.96h2.348c-.01.547.153.965.49 1.253.335.288.806.432 1.41.432.5 0 .894-.082 1.182-.245a.805.805 0 0 0 .432-.749c0-.279-.146-.48-.44-.605-.279-.12-.571-.21-.87-.267a49 49 0 0 0-.534-.096 11.558 11.558 0 0 1-1.915-.528 3.34 3.34 0 0 1-1.354-.936c-.365-.422-.548-.98-.548-1.67 0-.692.183-1.28.548-1.765a3.292 3.292 0 0 1 1.462-1.088 5.396 5.396 0 0 1 1.995-.36c.873 0 1.63.163 2.268.49a3.53 3.53 0 0 1 1.505 1.484c.17.28.282.59.332.914.038.284.057.57.057.857h-2.348c0-.518-.139-.9-.417-1.145-.279-.245-.71-.367-1.297-.367-.47 0-.835.081-1.094.245-.26.163-.39.384-.39.662 0 .307.174.533.52.677a7.78 7.78 0 0 0 1.31.39c.864.172 1.539.338 2.024.496.489.161.925.453 1.26.843.355.403.533.97.533 1.7 0 .69-.192 1.286-.576 1.785-.384.5-.89.882-1.52 1.146a5.212 5.212 0 0 1-2.038.396c-1.392-.002-2.465-.332-3.22-.99ZM34.497 28.163v-7.49h-3.788v-2.535h8.095v2.535h-3.789v7.49h-.518ZM41.526 18.138h7.303v2.535h-4.681v1.268h3.889v2.405h-3.89v1.282h4.682v2.535h-7.303V18.138ZM59.646 28.163H51.94V18.138h3.903c.835 0 1.517.149 2.045.446.505.275.924.684 1.21 1.181.29.504.439 1.076.432 1.657a3.18 3.18 0 0 1-.691 2.01 3.256 3.256 0 0 1-1.743 1.173l2.55 3.558Zm-7.174-9.146v5.17h3.702l-3.702-5.17Zm0 8.613h6.165l-2.103-2.924-.446.014h-3.616v2.91Zm.375-8.96 3.918 5.474a2.755 2.755 0 0 0 1.599-.965c.416-.49.64-1.114.633-1.757a2.746 2.746 0 0 0-.389-1.44 2.555 2.555 0 0 0-1.094-.994c-.423-.212-.975-.317-1.657-.317h-3.01Z" fill="#fff"/><symbol id="icon-circle-up" viewBox="0 0 32 32"><path d="M0 16c0 8.837 7.163 16 16 16s16-7.163 16-16S24.837 0 16 0 0 7.163 0 16zm29 0c0 7.18-5.82 13-13 13S3 23.18 3 16 8.82 3 16 3s13 5.82 13 13z"/><path d="m22.086 20.914 2.829-2.829-8.914-8.914-8.914 8.914 2.828 2.828 6.086-6.086z"/></symbol><symbol id="icon-close-icon" viewBox="0 0 32 32"><path d="M1.645 32h-.002a1.645 1.645 0 0 1-1.161-2.81L29.188.484a1.647 1.647 0 1 1 2.331 2.326l-.001.001L2.812 31.517a1.644 1.644 0 0 1-1.167.484z"/><path d="M30.355 32h-.003c-.454 0-.864-.185-1.16-.484L.482 2.81A1.647 1.647 0 0 1 2.811.483L2.81.482l28.706 28.706A1.645 1.645 0 0 1 30.357 32z"/></symbol><symbol id="icon-userfollow" viewBox="0 0 32 32"><path d="m25.724 25.333-2.862-2.862a.668.668 0 0 1 .943-.943l4 4c.26.26.26.682 0 .943l-4 4a.668.668 0 0 1-.943-.943l2.862-2.862h-6.391a.667.667 0 1 1 0-1.334h6.391zm-7.001-7.246a6.634 6.634 0 0 1-2.723.58 6.629 6.629 0 0 1-2.718-.578l-5.443 2.474a2 2 0 0 0-1.172 1.821v.95a2 2 0 0 0 2 2h6.667a.667.667 0 1 1 0 1.334H8.667a3.333 3.333 0 0 1-3.333-3.333v-.95c0-1.307.764-2.494 1.954-3.035l4.609-2.095a6.667 6.667 0 1 1 8.231-.017l3.469 1.484a.666.666 0 1 1-.524 1.226l-4.348-1.859zM16 17.333a5.333 5.333 0 1 0 0-10.666 5.333 5.333 0 0 0 0 10.666z"/></symbol><symbol id="icon-home" viewBox="0 0 32 32"><path d="M26.667 14.315v10.352A3.333 3.333 0 0 1 23.334 28h-4a.667.667 0 0 1-.667-.667v-8a.667.667 0 0 0-.667-.667h-4a.667.667 0 0 0-.667.667v8a.667.667 0 0 1-.667.667h-4a3.333 3.333 0 0 1-3.333-3.333V14.315l-.243.2a.666.666 0 0 1-.847-1.029l11.333-9.333a.667.667 0 0 1 .848 0l11.333 9.333a.666.666 0 0 1-.847 1.029l-.243-.2zm-1.325-1.091L16 5.53l-9.342 7.694a.659.659 0 0 1 .009.109v11.333a2 2 0 0 0 2 2H12v-7.333a2 2 0 0 1 2-2h4a2 2 0 0 1 2 2v7.333h3.333a2 2 0 0 0 2-2V13.333a.65.65 0 0 1 .009-.109z"/></symbol></symbol></defs></svg>